<svg xmlns="http://www.w3.org/2000/svg" width="64" height="64" viewBox="0 0 64 64" fill="none">
  <rect width="64" height="64" rx="14" fill="#07111F"/>
  <circle cx="32" cy="32" r="22" fill="#14B8A6"/>
  <path d="M24.1 18.7c3.3 15.2 11.8 23.7 27 27 2.5.5 4.9-1.3 4.9-3.9v-7c0-1.9-1.3-3.5-3.2-3.9l-7.9-1.6c-1.3-.3-2.7.1-3.6 1.1l-3.2 3.2c-4.6-2.4-8.4-6.2-10.8-10.8l3.2-3.2c.9-.9 1.3-2.3 1.1-3.6L30 8.9C29.6 7 28 5.7 26.1 5.7h-7c-2.6 0-4.5 2.3-3.9 4.9Z" transform="translate(-4 6)" fill="#07111F"/>
</svg>
