<svg xmlns="http://www.w3.org/2000/svg" width="1200" height="630" viewBox="0 0 1200 630" fill="none">
  <rect width="1200" height="630" fill="#07111F"/>
  <rect x="72" y="72" width="1056" height="486" rx="40" fill="#0E1A2B" stroke="#1E293B" stroke-width="2"/>
  <circle cx="252" cy="315" r="104" fill="#14B8A6" fill-opacity="0.14"/>
  <circle cx="252" cy="315" r="72" fill="#14B8A6"/>
  <path d="M219.5 267.5c12.6 58.7 45.3 91.4 103.9 103.9 9.8 2.1 18.7-5.1 18.7-15.1v-27.2c0-7.3-5.1-13.5-12.2-15l-30.5-6.3c-5-1-10.2.5-13.8 4.1l-12.2 12.2c-17.8-9.4-32.4-24-41.8-41.8l12.2-12.2c3.6-3.6 5.2-8.8 4.1-13.8l-6.3-30.5c-1.5-7.1-7.8-12.2-15-12.2h-27.2c-10.1 0-17.2 8.9-15.1 18.7Z" fill="#07111F"/>
  <text x="400" y="292" fill="#F8FAFC" font-family="Inter, Arial, sans-serif" font-size="82" font-weight="800">EazyCaller</text>
  <text x="404" y="360" fill="#CBD5E1" font-family="Inter, Arial, sans-serif" font-size="32" font-weight="500">Browser-based calling and call history for small teams.</text>
</svg>
